<?xml version="1.0"?><svg xmlns="http://www.w3.org/2000/svg" xmlns:xlink="http://www.w3.org/1999/xlink" version="1.1" viewBox="0 0 24 24" style="enable-background:new 0 0 24 24;" xml:space="preserve"><style type="text/css">
	.st0{opacity:0.2;fill:none;stroke:#000000;stroke-width:0.05;stroke-miterlimit:10;}
</style><g id="grid_system"/><g id="_icons"><path d="M18.4141,18l0.293-0.293c0.3906-0.3906,0.3906-1.0234,0-1.4141s-1.0234-0.3906-1.4141,0l-1.9993,1.9993   c-0.0925,0.0923-0.1658,0.2031-0.2166,0.3257c-0.1011,0.2444-0.1011,0.5197,0,0.764c0.0508,0.1226,0.124,0.2333,0.2166,0.3257   l1.9993,1.9993C17.4883,21.9023,17.7441,22,18,22s0.5117-0.0977,0.707-0.293c0.3906-0.3906,0.3906-1.0234,0-1.4141L18.4141,20H21   c0.5527,0,1-0.4478,1-1s-0.4473-1-1-1H18.4141z"/><path d="M5.1611,17.3613l-0.0908,0.356c-0.165,0.6567-0.0361,1.3569,0.3516,1.9209c0.4131,0.5996,1.0762,0.9951,1.8223,1.085   C8.8145,20.9067,10.4141,21,12,21c0.3984,0,0.7979-0.0098,1.1963-0.0205c0.5518-0.0142,0.9883-0.4736,0.9736-1.0259   c-0.0146-0.543-0.459-0.9736-0.999-0.9736c-0.0098,0-0.0186,0-0.0273,0.0005c-1.8896,0.0474-3.7988-0.0249-5.6631-0.2432   c-0.1738-0.021-0.3232-0.106-0.4111-0.2334c-0.0654-0.0952-0.085-0.1968-0.0605-0.2954l0.0889-0.3462   c0.2783-1.0649,1.0811-1.9424,2.1504-2.3486c1.7461-0.6704,3.6914-0.6816,5.4785-0.0093c0.0381,0.0161,0.082,0.0342,0.1475,0.0601   c0.1348,0.0508,0.2559,0.1152,0.3828,0.2017c0.457,0.311,1.0791,0.1938,1.3896-0.2627c0.3115-0.4561,0.1934-1.0786-0.2627-1.3896   c-0.2559-0.1743-0.5166-0.3115-0.7061-0.3784c-0.0527-0.0264-0.1055-0.0479-0.1201-0.0498   c-0.0303-0.0151-0.0605-0.0283-0.0918-0.0405c-2.2646-0.8594-4.7129-0.8516-6.9307,0C6.8643,14.2793,5.6035,15.667,5.1611,17.3613z   "/><path d="M17,7c0-2.7568-2.2432-5-5-5S7,4.2432,7,7s2.2432,5,5,5S17,9.7568,17,7z M9,7c0-1.6543,1.3457-3,3-3s3,1.3457,3,3   s-1.3457,3-3,3S9,8.6543,9,7z"/></g></svg>